<svg width="350" height="350" viewBox="0 0 350 350" fill="none" xmlns="http://www.w3.org/2000/svg">
<path d="M110.946 64.0545C172.219 28.6782 250.569 49.672 285.946 110.946C321.322 172.219 300.328 250.569 239.054 285.946C177.781 321.322 99.4307 300.328 64.0544 239.054C28.6782 177.781 49.672 99.4308 110.946 64.0545Z" fill="#564592" stroke="#564592"/>
<rect x="104.272" y="199.462" width="11.5894" height="8.05921" fill="#EDF67D"/>
<path d="M104.272 199.462L115.313 207.665H93.2319L104.272 199.462Z" fill="#EDF67D"/>
<rect width="17.4661" height="6.66931" transform="matrix(0.828293 -0.560296 0.442018 0.897006 229.085 204.642)" fill="#EDF67D"/>
<ellipse cx="230.559" cy="206.945" rx="3.43928" ry="4.02961" fill="#EDF67D"/>
<ellipse cx="162.704" cy="183.824" rx="14.3914" ry="14.2967" fill="#EDF67D"/>
<line y1="-1.55222" x2="7.99119" y2="-1.55222" transform="matrix(0.926311 -0.37676 0.381044 0.924557 169.899 183.824)" stroke="#564592" stroke-width="3.10443"/>
<path d="M242.122 202.682L179.175 78.5734C170.696 142.684 159.42 174.26 113.544 203.588L115.368 201.776L114.456 200.87" stroke="#EDF67D" stroke-width="8"/>
<path d="M122.097 198.31C91.5347 167.54 206.42 134.831 267.683 122.323" stroke="#EDF67D" stroke-width="4" stroke-linecap="round"/>
<g filter="url(#filter0_b_59_128)">
<path d="M72.7092 221.862C72.561 221.603 72.609 221.404 72.853 221.264C72.9446 221.212 73.0099 221.185 73.0492 221.183C74.6072 221.041 77.3289 221.519 81.2143 222.617C81.1555 222.55 81.101 222.49 81.0509 222.438C81.016 222.377 80.9899 222.331 80.9724 222.3C80.8243 222.041 80.8951 221.829 81.1849 221.663C81.3527 221.567 81.5336 221.636 81.7275 221.869C81.8452 222.004 81.9596 222.151 82.0707 222.31C82.2058 222.476 82.3823 222.678 82.6002 222.918C85.5769 223.666 88.2398 224.501 90.5889 225.425C92.962 226.356 95.0397 227.354 96.8223 228.419C96.977 228.513 97.1077 228.6 97.2145 228.681C97.3365 228.753 97.4193 228.827 97.4629 228.903C97.5675 229.086 97.4978 229.247 97.2537 229.387C96.7961 229.648 94.9635 230.089 91.7558 230.707L88.2289 231.387C88.4555 231.784 88.4468 232.052 88.2028 232.191C87.9282 232.348 87.6427 232.167 87.3464 231.649C86.3876 231.812 85.3536 232.039 84.2444 232.329C83.1592 232.625 82.0653 232.977 80.9626 233.385C80.6074 233.507 80.3688 233.461 80.2468 233.247C80.0986 232.988 80.1618 232.78 80.4364 232.623C80.4821 232.597 80.59 232.555 80.76 232.499C80.9299 232.442 81.1544 232.374 81.4333 232.296C82.4226 231.974 83.2464 231.715 83.9044 231.521C84.5713 231.343 85.1335 231.193 85.5911 231.074C86.0727 230.96 86.5074 230.853 86.8953 230.753C85.2304 227.981 83.6124 225.628 82.0413 223.693C81.0672 223.44 80.2413 223.234 79.5636 223.075C78.9012 222.907 78.4065 222.785 78.0797 222.709C76.5499 222.369 75.2163 222.16 74.0788 222.081C73.9764 222.079 73.8467 222.083 73.6898 222.091C73.5242 222.085 73.327 222.076 73.0982 222.065C72.926 222.083 72.7964 222.015 72.7092 221.862ZM83.5155 224.095C84.1431 224.91 84.8055 225.857 85.5028 226.935C86.2154 228.005 86.9835 229.226 87.8072 230.596C88.6397 230.424 89.4492 230.265 90.2359 230.119C91.0378 229.964 91.8048 229.819 92.537 229.684C93.3564 229.56 94.5593 229.328 96.1457 228.988C94.1125 227.803 92.0424 226.8 89.9352 225.981C87.8367 225.177 85.6968 224.548 83.5155 224.095Z" fill="#EDF67D"/>
</g>
<g filter="url(#filter1_b_59_128)">
<path d="M86.9776 242.534C86.6161 242.2 86.414 241.811 86.3713 241.365C86.3415 240.931 86.4874 240.539 86.8092 240.191C86.9283 240.062 87.0122 239.984 87.0609 239.957C86.4988 240.203 86.1404 240.255 85.9854 240.112C85.7789 239.921 85.7888 239.703 86.0152 239.458L91.1719 236.902C91.9762 236.497 92.8307 236.102 93.7354 235.717C94.6519 235.32 95.5387 234.955 96.3956 234.622C97.2774 234.289 98.0738 233.996 98.7848 233.743C99.5207 233.49 100.11 233.293 100.551 233.15C101.62 232.822 102.52 232.636 103.252 232.595C104.009 232.552 104.497 232.632 104.716 232.834C104.961 233.061 104.959 233.31 104.709 233.581C104.566 233.736 104.417 233.742 104.262 233.599C103.926 233.289 102.702 233.462 100.59 234.119C99.9269 234.319 99.2764 234.532 98.6389 234.756C98.0262 234.98 97.42 235.209 96.8202 235.445C95.9761 235.789 95.0775 236.167 94.1242 236.578C93.1709 236.989 92.1689 237.427 91.1183 237.892C92.1163 237.666 93.1118 237.533 94.1049 237.493C94.9738 237.458 95.7722 237.526 96.5001 237.695C97.2528 237.864 97.868 238.169 98.3457 238.61C98.875 239.098 99.1933 239.595 99.3006 240.101C99.4079 240.606 99.1815 241.162 98.6214 241.769C98.1567 242.273 97.5138 242.671 96.6925 242.965C95.8842 243.271 94.9974 243.481 94.0322 243.594C93.0799 243.719 92.1241 243.758 91.1648 243.709C90.2304 243.659 89.3923 243.531 88.6504 243.325C87.8967 243.131 87.3391 242.868 86.9776 242.534ZM87.5094 241.841C87.8967 242.199 88.4478 242.456 89.1628 242.614C89.8659 242.785 90.6464 242.872 91.5044 242.875C92.3624 242.878 93.2114 242.813 94.0515 242.68C94.9036 242.534 95.6662 242.329 96.3395 242.066C97.0246 241.79 97.54 241.464 97.8856 241.09C98.4218 240.509 98.3994 239.95 97.8184 239.414C97.302 238.938 96.6555 238.628 95.879 238.485C95.1024 238.342 94.2434 238.314 93.302 238.402C92.3736 238.501 91.4232 238.676 90.4511 238.926C89.4789 239.176 88.533 239.463 87.6135 239.786C87.8369 239.777 88.0003 239.82 88.1036 239.915C88.2843 240.082 88.2972 240.249 88.1423 240.417C88.0708 240.495 87.9611 240.549 87.8132 240.58C87.7516 240.595 87.6841 240.616 87.6106 240.644C87.5371 240.672 87.4527 240.737 87.3574 240.84C87.0714 241.15 87.1221 241.484 87.5094 241.841Z" fill="#EDF67D"/>
</g>
<g filter="url(#filter2_b_59_128)">
<path d="M94.4536 249.656C94.2237 249.494 94.1745 249.32 94.306 249.133C94.3667 249.047 94.4489 248.976 94.5527 248.92C94.6708 248.874 94.7645 248.832 94.8337 248.795L99.5857 246.21C101.612 245.102 102.691 244.454 102.823 244.267C102.964 244.066 103.136 244.036 103.337 244.178C103.61 244.37 103.65 244.602 103.458 244.875C103.357 245.019 103.13 245.203 102.779 245.428C102.427 245.654 102.004 245.904 101.509 246.179C100.639 246.683 99.9469 247.055 99.4339 247.296C100.219 247.096 100.991 246.931 101.75 246.799C102.508 246.667 103.259 246.562 104.002 246.483C106.206 246.251 107.675 246.393 108.407 246.909C108.91 247.263 108.995 247.677 108.661 248.151C108.337 248.611 108.025 248.734 107.723 248.522C107.579 248.421 107.558 248.223 107.658 247.928C107.736 247.725 107.696 247.568 107.538 247.457C107.294 247.285 106.633 247.217 105.555 247.253C104.374 247.282 103.111 247.413 101.765 247.647C100.433 247.891 98.8987 248.316 97.1628 248.92L95.0235 249.67C94.9155 249.701 94.8176 249.718 94.7298 249.721C94.6462 249.748 94.5542 249.726 94.4536 249.656Z" fill="#EDF67D"/>
</g>
<g filter="url(#filter3_b_59_128)">
<path d="M103.643 257.063C102.801 256.49 102.652 255.803 103.195 255.005C103.551 254.482 104.055 254.007 104.708 253.579C105.384 253.148 106.133 252.797 106.955 252.527C107.786 252.243 108.628 252.051 109.482 251.952C110.345 251.839 111.154 251.837 111.909 251.946C112.673 252.042 113.316 252.267 113.839 252.623C114.768 253.256 114.922 254.03 114.299 254.945C113.894 255.54 113.546 255.739 113.255 255.541C112.994 255.363 112.947 255.151 113.115 254.904C113.184 254.802 113.275 254.715 113.388 254.643C113.525 254.567 113.638 254.463 113.727 254.332C114.004 253.926 113.867 253.535 113.315 253.159C112.429 252.556 110.858 252.475 108.603 252.916C108.056 253.032 107.477 253.212 106.865 253.454C106.254 253.697 105.688 253.981 105.168 254.308C104.673 254.629 104.287 254.993 104.01 255.4C103.743 255.792 103.828 256.137 104.263 256.433C104.641 256.69 105.119 256.846 105.699 256.9C106.293 256.965 106.833 256.982 107.321 256.953C108.286 256.908 109.385 256.7 110.616 256.327C110.797 256.28 111.031 256.216 111.32 256.136C111.608 256.056 111.933 255.969 112.294 255.875C112.416 255.852 112.528 255.875 112.63 255.944C112.862 256.103 112.899 256.298 112.741 256.53L111.068 257.208C109.963 257.646 109.232 258.126 108.876 258.649C108.619 259.026 108.672 259.339 109.035 259.586C109.34 259.794 109.728 259.941 110.2 260.029C110.672 260.116 111.078 260.159 111.419 260.157C112.092 260.169 112.835 260.122 113.65 260.018C114.475 259.9 115.278 259.766 116.059 259.618C116.156 259.599 116.263 259.629 116.38 259.709C116.597 259.857 116.647 260.018 116.528 260.192C116.42 260.352 116.194 260.464 115.853 260.529C114.876 260.715 114.012 260.86 113.261 260.965C112.519 261.055 111.849 261.087 111.25 261.062C110.865 261.034 110.41 260.969 109.885 260.866C109.36 260.764 108.836 260.534 108.313 260.178C107.601 259.694 107.502 259.074 108.017 258.319C108.214 258.028 108.414 257.814 108.615 257.674C106.433 258.038 104.776 257.834 103.643 257.063Z" fill="#EDF67D"/>
</g>
<g filter="url(#filter4_b_59_128)">
<path d="M113.411 274.292C113.019 274.093 112.765 273.836 112.65 273.521C112.534 273.206 112.563 272.876 112.738 272.532C112.985 272.046 113.376 271.703 113.912 271.502C114.455 271.325 115.14 271.2 115.965 271.127C116.602 271.076 117.459 270.999 118.536 270.896C119.605 270.809 120.717 270.694 121.873 270.552C122.502 270.478 123.025 270.399 123.442 270.315C123.851 270.247 124.268 270.163 124.693 270.064C124.765 269.962 124.82 269.872 124.86 269.794C124.916 269.723 124.951 269.673 124.967 269.641C125.254 269.077 125.367 268.485 125.309 267.864C125.258 267.227 124.99 266.746 124.505 266.421C122.614 267.194 121.387 267.438 120.823 267.151C120.431 266.952 120.347 266.633 120.57 266.195C120.761 265.819 121.089 265.542 121.553 265.364C122.034 265.195 122.557 265.116 123.122 265.127C123.688 265.139 124.179 265.24 124.594 265.431C127.068 264.285 128.624 263.085 129.261 261.832C129.603 261.158 129.445 260.654 128.787 260.32C127.8 259.819 125.902 259.987 123.091 260.825C122.879 260.895 122.477 261.025 121.887 261.218C121.312 261.419 120.662 261.65 119.938 261.913C119.221 262.159 118.528 262.398 117.859 262.63C117.693 262.684 117.52 262.734 117.339 262.78C117.174 262.834 117.028 262.829 116.903 262.765C116.7 262.662 116.653 262.5 116.765 262.281C116.837 262.14 116.959 262.035 117.132 261.965C117.211 261.926 117.475 261.834 117.924 261.687C118.396 261.533 118.939 261.356 119.554 261.156C120.168 260.956 120.77 260.759 121.361 260.566C121.951 260.374 122.435 260.216 122.813 260.093C124.278 259.615 125.552 259.336 126.637 259.257C127.73 259.162 128.644 259.302 129.381 259.676C130.43 260.209 130.668 261.039 130.095 262.167C129.331 263.671 127.755 264.949 125.368 266.002C125.82 266.508 126.076 267.111 126.134 267.81C126.216 268.502 126.129 269.138 125.874 269.718C126.622 269.566 127.172 269.451 127.526 269.375C127.88 269.299 128.136 269.241 128.293 269.203C128.467 269.173 128.624 269.135 128.766 269.088C128.923 269.05 129.151 268.989 129.45 268.904C129.765 268.828 130.253 268.701 130.914 268.525C131.04 268.51 131.142 268.522 131.22 268.562C131.299 268.602 131.365 268.665 131.42 268.752C131.474 268.839 131.477 268.929 131.43 269.023C131.342 269.195 131.062 269.359 130.59 269.513C130.086 269.651 129.496 269.804 128.819 269.973C128.158 270.149 127.505 270.31 126.859 270.455C126.222 270.584 125.679 270.683 125.231 270.751C124.359 271.884 122.994 272.826 121.135 273.576C120.591 273.793 120.017 273.974 119.411 274.119C118.812 274.288 118.199 274.429 117.569 274.543C116.846 274.649 116.095 274.691 115.317 274.67C114.547 274.673 113.912 274.547 113.411 274.292ZM121.251 266.541C121.652 266.528 122.092 266.456 122.573 266.326C123.068 266.203 123.442 266.068 123.695 265.92C123.082 265.846 122.548 265.87 122.091 265.993C121.643 266.1 121.363 266.283 121.251 266.541ZM114.051 273.672C114.756 274.03 115.907 274.053 117.504 273.741C118.668 273.505 119.778 273.183 120.834 272.773C122.126 272.247 123.115 271.676 123.803 271.06C123.653 271.082 123.473 271.109 123.26 271.139C123.04 271.184 122.725 271.241 122.316 271.309C121.656 271.407 121.082 271.49 120.594 271.557C120.106 271.625 119.639 271.673 119.191 271.702C118.75 271.754 118.275 271.798 117.764 271.834C117.268 271.878 116.683 271.925 116.007 271.976C115.236 272.018 114.674 272.116 114.319 272.271C113.957 272.442 113.728 272.621 113.632 272.809C113.457 273.153 113.597 273.441 114.051 273.672Z" fill="#EDF67D"/>
</g>
<g filter="url(#filter5_b_59_128)">
<path d="M132.97 275.348C131.969 275.156 131.559 274.586 131.741 273.637C131.86 273.016 132.134 272.379 132.563 271.728C133.012 271.063 133.56 270.443 134.206 269.869C134.856 269.278 135.553 268.768 136.297 268.338C137.045 267.891 137.786 267.567 138.522 267.368C139.261 267.152 139.941 267.103 140.562 267.222C141.667 267.434 142.115 268.083 141.907 269.17C141.771 269.878 141.531 270.198 141.186 270.132C140.875 270.073 140.748 269.896 140.804 269.603C140.827 269.482 140.876 269.366 140.951 269.256C141.047 269.131 141.109 268.991 141.139 268.835C141.232 268.352 140.95 268.048 140.294 267.922C139.242 267.721 137.768 268.27 135.873 269.571C135.418 269.896 134.958 270.29 134.493 270.756C134.028 271.221 133.622 271.707 133.275 272.213C132.948 272.705 132.738 273.193 132.646 273.676C132.557 274.142 132.771 274.424 133.289 274.523C133.737 274.609 134.238 274.562 134.792 274.382C135.362 274.205 135.865 274.006 136.301 273.785C137.169 273.361 138.094 272.733 139.076 271.902C139.224 271.787 139.414 271.635 139.646 271.447C139.879 271.259 140.143 271.05 140.437 270.821C140.54 270.751 140.652 270.728 140.772 270.751C141.049 270.804 141.16 270.968 141.107 271.244L139.841 272.531C139.001 273.372 138.521 274.103 138.402 274.724C138.316 275.173 138.489 275.438 138.92 275.521C139.282 275.59 139.698 275.571 140.165 275.464C140.633 275.357 141.023 275.235 141.335 275.098C141.957 274.841 142.621 274.503 143.327 274.084C144.037 273.647 144.721 273.206 145.379 272.759C145.461 272.704 145.571 272.689 145.709 272.715C145.968 272.765 146.077 272.893 146.038 273.1C146.001 273.29 145.839 273.483 145.552 273.678C144.729 274.236 143.994 274.712 143.346 275.107C142.701 275.485 142.099 275.781 141.539 275.995C141.175 276.123 140.732 276.243 140.209 276.358C139.686 276.472 139.114 276.47 138.493 276.351C137.647 276.189 137.31 275.66 137.482 274.763C137.548 274.418 137.646 274.141 137.775 273.933C135.918 275.134 134.316 275.605 132.97 275.348Z" fill="#EDF67D"/>
</g>
<g filter="url(#filter6_b_59_128)">
<path d="M145.677 282.454C145.396 282.444 145.26 282.325 145.268 282.097C145.271 281.992 145.301 281.887 145.358 281.784C145.432 281.681 145.488 281.595 145.525 281.526L148.094 276.765C149.185 274.729 149.735 273.597 149.743 273.369C149.752 273.123 149.879 273.005 150.125 273.014C150.459 273.025 150.62 273.198 150.608 273.532C150.602 273.707 150.513 273.985 150.341 274.366C150.169 274.747 149.951 275.187 149.688 275.688C149.234 276.586 148.858 277.276 148.559 277.757C149.108 277.161 149.664 276.601 150.228 276.076C150.791 275.551 151.363 275.053 151.942 274.581C153.662 273.183 154.969 272.5 155.865 272.531C156.479 272.553 156.776 272.854 156.755 273.433C156.736 273.995 156.541 274.269 156.173 274.256C155.997 274.25 155.871 274.096 155.793 273.795C155.748 273.582 155.629 273.472 155.436 273.466C155.137 273.455 154.546 273.759 153.663 274.378C152.69 275.047 151.704 275.847 150.704 276.779C149.721 277.711 148.668 278.904 147.544 280.358L146.162 282.155C146.089 282.24 146.016 282.308 145.944 282.358C145.889 282.427 145.8 282.459 145.677 282.454Z" fill="#EDF67D"/>
</g>
<g filter="url(#filter7_b_59_128)">
<path d="M171.219 283.815C170.481 283.828 169.897 283.583 169.466 283.082C169.035 282.58 168.813 281.96 168.8 281.222C168.778 279.957 169.176 278.65 169.995 277.3C170.217 276.927 170.474 276.562 170.766 276.205C171.058 275.831 171.377 275.474 171.722 275.134C172.24 274.615 172.786 274.184 173.36 273.84C173.933 273.496 174.493 273.319 175.037 273.309C175.933 273.293 176.388 273.706 176.404 274.55C176.422 275.603 175.825 276.572 174.61 277.455C173.483 278.248 172.365 278.654 171.259 278.674C171.065 278.678 170.89 278.672 170.731 278.657C170.59 278.625 170.458 278.592 170.334 278.559C170.164 278.896 170.014 279.329 169.883 279.859C169.752 280.388 169.69 280.846 169.697 281.232C169.717 282.392 170.237 282.962 171.256 282.944C172.081 282.929 172.861 282.775 173.593 282.481C174.326 282.169 175.194 281.6 176.199 280.774C176.822 280.27 177.289 279.867 177.6 279.562C177.911 279.258 178.248 278.936 178.611 278.595C178.715 278.523 178.811 278.486 178.899 278.485C178.987 278.483 179.075 278.508 179.164 278.559C179.252 278.61 179.298 278.689 179.3 278.794C179.303 278.987 179.132 279.263 178.787 279.62C178.494 279.907 178.183 280.211 177.855 280.533C177.526 280.838 177.007 281.269 176.296 281.826C175.534 282.437 174.699 282.918 173.792 283.268C172.884 283.618 172.027 283.8 171.219 283.815ZM171.085 277.834C171.647 277.824 172.182 277.726 172.688 277.542C173.194 277.357 173.673 277.094 174.123 276.752C175.129 275.978 175.625 275.258 175.614 274.59C175.608 274.291 175.421 274.145 175.052 274.152C174.35 274.165 173.54 274.61 172.625 275.487C172.176 275.917 171.805 276.31 171.513 276.667C171.237 277.005 170.981 277.379 170.742 277.787C170.848 277.821 170.962 277.836 171.085 277.834Z" fill="#EDF67D"/>
</g>
<g filter="url(#filter8_b_59_128)">
<path d="M187.065 283.316C186.294 283.559 185.625 283.512 185.059 283.175C184.503 282.816 184.102 282.242 183.853 281.455C183.674 280.885 183.558 280.166 183.506 279.299C183.43 277.83 183.528 276.068 183.801 274.011C184.027 272.448 184.311 270.894 184.653 269.349C184.99 267.788 185.411 266.228 185.914 264.669C186.711 262.171 187.394 260.832 187.964 260.652C188.333 260.536 188.549 260.579 188.612 260.78C188.702 261.065 188.457 261.925 187.878 263.36L186.791 266.051C185.847 268.374 185.193 270.653 184.828 272.886C184.48 275.114 184.342 277.276 184.413 279.372C184.436 279.972 184.525 280.516 184.678 281.001C185.079 282.275 185.799 282.748 186.838 282.421C187.207 282.305 187.549 282.077 187.866 281.738C188.188 281.415 188.366 281.248 188.399 281.238C188.601 281.175 188.746 281.285 188.836 281.57C188.915 281.822 188.883 282.043 188.741 282.235C188.277 282.75 187.718 283.11 187.065 283.316Z" fill="#EDF67D"/>
</g>
<g filter="url(#filter9_b_59_128)">
<path d="M205.728 279.597C204.939 279.84 204.371 279.399 204.024 278.274C203.569 276.797 203.491 274.247 203.79 270.625C203.843 270.021 203.929 269.378 204.05 268.697C204.171 268.016 204.333 267.287 204.534 266.508C204.736 265.673 204.942 264.939 205.151 264.304C205.376 263.665 205.583 263.142 205.77 262.735C205.839 262.603 205.903 262.51 205.959 262.456C206.033 262.396 206.095 262.359 206.145 262.343C206.582 262.208 207.116 262.182 207.748 262.263C208.379 262.344 208.973 262.51 209.529 262.762C210.035 262.973 210.487 263.275 210.883 263.668C211.28 264.06 211.556 264.508 211.711 265.012C211.825 265.381 211.866 265.782 211.834 266.215C211.814 266.626 211.743 267.052 211.622 267.494C212.032 267.275 212.502 266.919 213.03 266.426C213.574 265.927 214.078 265.266 214.542 264.443C214.588 264.355 214.67 264.293 214.788 264.257C215.04 264.179 215.197 264.241 215.259 264.442C215.284 264.526 215.276 264.648 215.234 264.809C215.203 264.947 215.123 265.137 214.996 265.378C214.105 266.903 212.813 268.018 211.118 268.725C210.949 269.071 210.753 269.416 210.528 269.761C210.315 270.084 210.08 270.396 209.823 270.696C209.031 271.583 208.29 272.133 207.602 272.346C207.316 272.434 207.053 272.414 206.811 272.286C206.57 272.158 206.413 271.977 206.34 271.742C206.102 270.97 206.593 270.175 207.811 269.358C208.257 269.074 208.708 268.806 209.163 268.555C209.619 268.304 210.064 268.048 210.498 267.785C210.673 267.161 210.777 266.633 210.809 266.2C210.858 265.762 210.841 265.409 210.758 265.14C210.484 264.251 209.559 263.607 207.985 263.21C207.366 263.052 206.908 263.027 206.611 263.137C205.7 265.073 205.051 267.589 204.664 270.687C204.252 273.884 204.295 276.288 204.791 277.9C204.911 278.286 205.024 278.536 205.133 278.65C205.241 278.763 205.38 278.794 205.548 278.742C205.598 278.727 205.637 278.706 205.666 278.678C205.699 278.668 205.733 278.658 205.766 278.647C205.985 278.58 206.135 278.681 206.218 278.949C206.311 279.252 206.148 279.467 205.728 279.597ZM207.53 271.485C208.151 271.294 208.899 270.53 209.774 269.194C209.516 269.311 209.269 269.433 209.032 269.561C208.813 269.684 208.497 269.882 208.085 270.156C207.397 270.607 207.104 271.001 207.208 271.336C207.255 271.488 207.362 271.537 207.53 271.485Z" fill="#EDF67D"/>
</g>
<g filter="url(#filter10_b_59_128)">
<path d="M217.303 272.874C217.047 272.992 216.872 272.947 216.776 272.739C216.732 272.644 216.712 272.537 216.716 272.419C216.735 272.294 216.747 272.192 216.749 272.113L216.897 266.706C216.955 264.397 216.936 263.138 216.841 262.931C216.738 262.708 216.798 262.544 217.021 262.441C217.324 262.302 217.546 262.383 217.686 262.687C217.759 262.846 217.805 263.135 217.823 263.552C217.841 263.969 217.845 264.46 217.835 265.026C217.835 266.032 217.81 266.817 217.76 267.382C217.982 266.603 218.226 265.852 218.492 265.129C218.759 264.407 219.045 263.705 219.349 263.022C220.255 261 221.114 259.801 221.928 259.426C222.486 259.168 222.887 259.303 223.13 259.829C223.365 260.34 223.315 260.672 222.98 260.827C222.821 260.9 222.638 260.82 222.434 260.585C222.297 260.416 222.142 260.372 221.966 260.453C221.695 260.578 221.304 261.115 220.795 262.066C220.227 263.101 219.707 264.26 219.234 265.542C218.777 266.817 218.374 268.357 218.026 270.161L217.601 272.388C217.574 272.497 217.54 272.591 217.498 272.668C217.479 272.754 217.414 272.822 217.303 272.874Z" fill="#EDF67D"/>
</g>
<g filter="url(#filter11_b_59_128)">
<path d="M229.857 268.53C229.238 268.931 228.612 269.032 227.982 268.833C227.351 268.634 226.835 268.225 226.434 267.605C225.747 266.543 225.395 265.223 225.378 263.644C225.369 263.21 225.395 262.764 225.455 262.307C225.505 261.835 225.587 261.363 225.701 260.892C225.867 260.178 226.102 259.524 226.408 258.928C226.713 258.333 227.095 257.888 227.552 257.592C228.304 257.105 228.909 257.216 229.367 257.924C229.94 258.809 229.944 259.947 229.379 261.338C228.84 262.607 228.106 263.542 227.176 264.143C227.014 264.248 226.862 264.337 226.72 264.408C226.583 264.454 226.453 264.497 226.33 264.534C226.364 264.91 226.465 265.357 226.634 265.876C226.802 266.395 226.991 266.816 227.201 267.141C227.831 268.114 228.573 268.324 229.429 267.771C230.122 267.322 230.702 266.78 231.169 266.143C231.627 265.491 232.063 264.55 232.48 263.318C232.744 262.561 232.927 261.971 233.031 261.549C233.134 261.126 233.25 260.675 233.378 260.194C233.429 260.078 233.491 259.996 233.564 259.948C233.638 259.9 233.726 259.875 233.829 259.871C233.931 259.868 234.011 259.91 234.068 259.999C234.173 260.161 234.174 260.485 234.069 260.971C233.971 261.369 233.868 261.792 233.759 262.239C233.641 262.671 233.428 263.311 233.119 264.16C232.794 265.081 232.339 265.93 231.754 266.707C231.168 267.483 230.536 268.091 229.857 268.53ZM226.586 263.521C227.058 263.216 227.46 262.851 227.792 262.427C228.125 262.003 228.392 261.526 228.594 260.998C229.039 259.81 229.081 258.936 228.718 258.375C228.556 258.125 228.32 258.1 228.01 258.3C227.42 258.682 226.968 259.487 226.654 260.715C226.499 261.317 226.392 261.847 226.332 262.304C226.277 262.737 226.256 263.19 226.269 263.663C226.377 263.635 226.482 263.588 226.586 263.521Z" fill="#EDF67D"/>
</g>
<g filter="url(#filter12_b_59_128)">
<path d="M238.27 261.403C237.463 261.966 236.873 261.981 236.501 261.447C236.27 261.116 236.154 260.704 236.154 260.212C236.168 259.71 236.245 259.206 236.385 258.701C236.526 258.196 236.69 257.771 236.878 257.426C236.934 257.323 237.019 257.199 237.133 257.055C237.261 256.901 237.376 256.789 237.477 256.719C237.592 256.639 237.68 256.642 237.74 256.728C237.79 256.8 237.766 256.935 237.668 257.132C237.226 257.911 236.974 258.655 236.911 259.363C236.852 260.046 236.918 260.525 237.109 260.799C237.29 261.058 237.604 261.032 238.051 260.72C238.425 260.459 238.763 260.084 239.065 259.595C239.381 259.096 239.628 258.56 239.806 257.986C239.999 257.402 240.104 256.847 240.122 256.32C240.14 255.793 240.039 255.371 239.818 255.054C239.667 254.838 239.459 254.694 239.195 254.621C238.944 254.539 238.638 254.56 238.275 254.685L236.547 255.247C236.106 255.383 235.741 255.413 235.452 255.336C235.163 255.259 234.938 255.105 234.777 254.875C234.475 254.443 234.363 253.943 234.438 253.376C234.529 252.799 234.748 252.239 235.098 251.695C235.447 251.152 235.852 250.719 236.313 250.398C236.774 250.076 237.258 249.91 237.765 249.899C238.261 249.874 238.64 250.049 238.902 250.424C239.052 250.64 239.128 250.887 239.129 251.165C239.145 251.433 239.073 251.622 238.915 251.732C238.67 251.903 238.477 251.888 238.336 251.686C238.286 251.614 238.262 251.502 238.263 251.351C238.269 251.176 238.237 251.037 238.167 250.936C237.865 250.504 237.383 250.519 236.72 250.981C236.36 251.233 236.055 251.563 235.805 251.973C235.56 252.358 235.407 252.754 235.348 253.16C235.288 253.565 235.359 253.912 235.56 254.201C235.761 254.489 236.21 254.518 236.907 254.289L238.592 253.757C239.1 253.595 239.514 253.574 239.833 253.694C240.142 253.8 240.392 253.989 240.583 254.263C241.036 254.912 241.107 255.858 240.797 257.103C240.308 259.135 239.466 260.569 238.27 261.403Z" fill="#EDF67D"/>
</g>
<g filter="url(#filter13_b_59_128)">
<path d="M247.611 254.586C247.01 255.014 246.39 255.143 245.751 254.972C245.112 254.802 244.578 254.416 244.15 253.815C243.416 252.785 243.006 251.481 242.918 249.905C242.89 249.472 242.896 249.025 242.935 248.566C242.964 248.092 243.025 247.617 243.118 247.142C243.251 246.421 243.458 245.756 243.736 245.148C244.015 244.54 244.376 244.078 244.819 243.762C245.549 243.242 246.159 243.326 246.648 244.012C247.259 244.871 247.314 246.008 246.812 247.422C246.33 248.714 245.639 249.682 244.737 250.324C244.58 250.436 244.431 250.531 244.292 250.608C244.158 250.661 244.03 250.709 243.909 250.752C243.96 251.125 244.081 251.568 244.272 252.078C244.463 252.589 244.671 253.002 244.895 253.317C245.568 254.261 246.319 254.438 247.149 253.847C247.822 253.368 248.377 252.8 248.815 252.143C249.243 251.471 249.637 250.511 249.998 249.262C250.228 248.494 250.385 247.897 250.47 247.47C250.554 247.043 250.649 246.587 250.756 246.101C250.801 245.983 250.86 245.898 250.931 245.847C251.003 245.796 251.09 245.767 251.192 245.759C251.294 245.751 251.376 245.789 251.437 245.875C251.549 246.033 251.564 246.356 251.481 246.846C251.401 247.249 251.317 247.675 251.228 248.127C251.13 248.564 250.945 249.213 250.674 250.074C250.391 251.009 249.975 251.878 249.424 252.68C248.874 253.482 248.269 254.117 247.611 254.586ZM244.119 249.729C244.577 249.402 244.962 249.02 245.275 248.581C245.589 248.143 245.834 247.655 246.013 247.118C246.404 245.912 246.407 245.036 246.019 244.493C245.846 244.249 245.609 244.235 245.309 244.449C244.736 244.856 244.32 245.681 244.062 246.922C243.934 247.531 243.851 248.065 243.811 248.524C243.776 248.959 243.775 249.413 243.809 249.884C243.916 249.852 244.019 249.8 244.119 249.729Z" fill="#EDF67D"/>
</g>
<g filter="url(#filter14_b_59_128)">
<path d="M254.266 248.389C254.073 248.594 253.894 248.618 253.728 248.461C253.664 248.401 253.611 248.303 253.57 248.167C253.516 248.02 253.475 247.897 253.448 247.798L251.607 242.799C250.798 240.635 250.311 239.475 250.145 239.318C249.966 239.149 249.961 238.975 250.13 238.796C250.359 238.554 250.601 238.553 250.857 238.794C250.946 238.878 251.084 239.117 251.269 239.509C251.455 239.902 251.648 240.362 251.85 240.891C252.225 241.824 252.495 242.562 252.659 243.104C252.574 242.299 252.52 241.511 252.498 240.741C252.476 239.971 252.479 239.213 252.507 238.467C252.592 236.252 252.942 234.819 253.557 234.167C253.979 233.72 254.401 233.696 254.822 234.093C255.206 234.455 255.761 235.595 256.487 237.513C257.227 239.443 257.775 240.576 258.133 240.914C258.299 241.071 258.436 241.092 258.545 240.977C258.581 240.938 258.622 240.869 258.669 240.768C258.715 240.642 258.781 240.535 258.865 240.445C259.07 240.228 259.275 240.216 259.479 240.409C259.735 240.65 259.603 241.046 259.085 241.595C258.843 241.85 258.611 241.981 258.388 241.988C258.151 241.982 257.931 241.883 257.726 241.69C257.113 241.111 256.476 239.918 255.815 238.11C255.166 236.314 254.714 235.296 254.459 235.055C254.305 234.91 254.174 234.895 254.066 235.01C253.801 235.291 253.609 235.968 253.491 237.04C253.363 238.2 253.311 239.432 253.337 240.736C253.362 242.04 253.513 243.403 253.79 244.824L254.383 247.92C254.426 248.105 254.387 248.262 254.266 248.389Z" fill="#EDF67D"/>
</g>
<g filter="url(#filter15_b_59_128)">
<path d="M264.634 237.658C264.468 237.948 264.157 237.962 263.699 237.7C263.028 237.316 262.068 236.27 260.819 234.563C259.578 232.841 258.028 230.456 256.17 227.408C255.838 227.987 255.6 228.58 255.456 229.186C255.305 229.767 255.327 230.134 255.523 230.287C255.576 230.337 255.615 230.41 255.641 230.506C255.66 230.578 255.64 230.667 255.579 230.774C255.439 231.018 255.247 231.07 255.003 230.931C254.607 230.704 254.458 230.204 254.557 229.43C254.655 228.656 255.027 227.706 255.673 226.577L253.969 223.507C253.863 223.304 253.745 223.085 253.617 222.849C253.473 222.605 253.323 222.337 253.166 222.045C253.04 221.77 253.034 221.534 253.147 221.336C253.217 221.214 253.308 221.144 253.419 221.127C253.515 221.101 253.601 221.109 253.677 221.153C253.906 221.284 254.324 221.969 254.931 223.207C255.686 224.752 256.099 225.586 256.171 225.708C256.302 225.479 256.521 225.149 256.829 224.718C257.121 224.278 257.484 223.768 257.918 223.186C258.064 222.966 258.244 222.917 258.458 223.039C258.702 223.179 258.745 223.386 258.588 223.661C258.527 223.767 258.389 223.972 258.176 224.275C257.947 224.569 257.712 224.89 257.472 225.238C257.232 225.587 257.046 225.895 256.912 226.163L256.739 226.519C260.41 232.73 262.914 236.208 264.249 236.952L264.445 237.034L264.491 237.06C264.735 237.2 264.783 237.399 264.634 237.658Z" fill="#EDF67D"/>
</g>
<g filter="url(#filter16_b_59_128)">
<path d="M269.313 229.935C268.898 230.545 268.362 230.881 267.703 230.944C267.045 231.006 266.411 230.83 265.8 230.415C264.754 229.704 263.916 228.624 263.286 227.176C263.109 226.78 262.959 226.36 262.837 225.915C262.699 225.461 262.591 224.994 262.513 224.516C262.388 223.794 262.35 223.099 262.4 222.432C262.45 221.765 262.628 221.206 262.934 220.756C263.438 220.015 264.038 219.881 264.736 220.355C265.607 220.948 266.054 221.994 266.074 223.495C266.072 224.874 265.759 226.022 265.137 226.937C265.029 227.097 264.923 227.237 264.819 227.358C264.711 227.455 264.608 227.544 264.51 227.626C264.687 227.959 264.954 228.331 265.311 228.744C265.668 229.157 266.006 229.471 266.326 229.689C267.285 230.34 268.051 230.245 268.624 229.402C269.088 228.719 269.411 227.994 269.593 227.225C269.761 226.447 269.797 225.41 269.702 224.113C269.65 223.313 269.59 222.699 269.521 222.269C269.451 221.84 269.382 221.379 269.314 220.886C269.315 220.759 269.34 220.659 269.39 220.587C269.439 220.514 269.51 220.456 269.603 220.413C269.696 220.37 269.786 220.378 269.873 220.438C270.033 220.546 270.16 220.845 270.253 221.333C270.317 221.738 270.387 222.167 270.46 222.621C270.52 223.065 270.572 223.738 270.618 224.64C270.677 225.615 270.588 226.574 270.351 227.517C270.113 228.46 269.768 229.266 269.313 229.935ZM264.351 226.594C264.667 226.129 264.895 225.636 265.037 225.116C265.178 224.596 265.239 224.053 265.219 223.488C265.167 222.22 264.865 221.399 264.313 221.024C264.066 220.856 263.839 220.925 263.631 221.23C263.236 221.811 263.133 222.728 263.322 223.982C263.414 224.597 263.521 225.127 263.644 225.571C263.762 225.992 263.919 226.417 264.115 226.847C264.203 226.78 264.282 226.695 264.351 226.594Z" fill="#EDF67D"/>
</g>
<rect x="104.272" y="199.462" width="11.5894" height="8.05921" fill="#EDF67D"/>
<path d="M104.272 199.462L115.313 207.665H93.2319L104.272 199.462Z" fill="#EDF67D"/>
<rect width="17.4661" height="6.66931" transform="matrix(0.828293 -0.560296 0.442018 0.897006 229.085 204.642)" fill="#EDF67D"/>
<ellipse cx="230.559" cy="206.945" rx="3.43928" ry="4.02961" fill="#EDF67D"/>
<ellipse cx="162.704" cy="183.824" rx="14.3914" ry="14.2967" fill="#EDF67D"/>
<line y1="-1.55222" x2="7.99119" y2="-1.55222" transform="matrix(0.926311 -0.37676 0.381044 0.924557 169.899 183.824)" stroke="#564592" stroke-width="3.10443"/>
<path d="M242.122 202.682L179.175 78.5734C170.696 142.684 159.42 174.26 113.544 203.588L115.368 201.776L114.456 200.87" stroke="#EDF67D" stroke-width="8"/>
<path d="M122.097 198.31C91.5347 167.54 206.42 134.831 267.683 122.323" stroke="#EDF67D" stroke-width="4" stroke-linecap="round"/>
<defs>
<filter id="filter0_b_59_128" x="68.4869" y="208.543" width="33.1329" height="33.5643" filterUnits="userSpaceOnUse" color-interpolation-filters="sRGB">
<feFlood flood-opacity="0" result="BackgroundImageFix"/>
<feGaussianBlur in="BackgroundImageFix" stdDeviation="2"/>
<feComposite in2="SourceAlpha" operator="in" result="effect1_backgroundBlur_59_128"/>
<feBlend mode="normal" in="SourceGraphic" in2="effect1_backgroundBlur_59_128" result="shape"/>
</filter>
<filter id="filter1_b_59_128" x="80.9249" y="222.561" width="28.9532" height="29.4247" filterUnits="userSpaceOnUse" color-interpolation-filters="sRGB">
<feFlood flood-opacity="0" result="BackgroundImageFix"/>
<feGaussianBlur in="BackgroundImageFix" stdDeviation="2"/>
<feComposite in2="SourceAlpha" operator="in" result="effect1_backgroundBlur_59_128"/>
<feBlend mode="normal" in="SourceGraphic" in2="effect1_backgroundBlur_59_128" result="shape"/>
</filter>
<filter id="filter2_b_59_128" x="90.1088" y="237.009" width="23.0529" height="22.8358" filterUnits="userSpaceOnUse" color-interpolation-filters="sRGB">
<feFlood flood-opacity="0" result="BackgroundImageFix"/>
<feGaussianBlur in="BackgroundImageFix" stdDeviation="2"/>
<feComposite in2="SourceAlpha" operator="in" result="effect1_backgroundBlur_59_128"/>
<feBlend mode="normal" in="SourceGraphic" in2="effect1_backgroundBlur_59_128" result="shape"/>
</filter>
<filter id="filter3_b_59_128" x="98.3798" y="244.426" width="24.8181" height="23.6221" filterUnits="userSpaceOnUse" color-interpolation-filters="sRGB">
<feFlood flood-opacity="0" result="BackgroundImageFix"/>
<feGaussianBlur in="BackgroundImageFix" stdDeviation="2"/>
<feComposite in2="SourceAlpha" operator="in" result="effect1_backgroundBlur_59_128"/>
<feBlend mode="normal" in="SourceGraphic" in2="effect1_backgroundBlur_59_128" result="shape"/>
</filter>
<filter id="filter4_b_59_128" x="107.226" y="251.115" width="31.5585" height="33.3728" filterUnits="userSpaceOnUse" color-interpolation-filters="sRGB">
<feFlood flood-opacity="0" result="BackgroundImageFix"/>
<feGaussianBlur in="BackgroundImageFix" stdDeviation="2"/>
<feComposite in2="SourceAlpha" operator="in" result="effect1_backgroundBlur_59_128"/>
<feBlend mode="normal" in="SourceGraphic" in2="effect1_backgroundBlur_59_128" result="shape"/>
</filter>
<filter id="filter5_b_59_128" x="127.469" y="261.82" width="23.4611" height="19.8615" filterUnits="userSpaceOnUse" color-interpolation-filters="sRGB">
<feFlood flood-opacity="0" result="BackgroundImageFix"/>
<feGaussianBlur in="BackgroundImageFix" stdDeviation="2"/>
<feComposite in2="SourceAlpha" operator="in" result="effect1_backgroundBlur_59_128"/>
<feBlend mode="normal" in="SourceGraphic" in2="effect1_backgroundBlur_59_128" result="shape"/>
</filter>
<filter id="filter6_b_59_128" x="141.255" y="268.168" width="19.5308" height="18.6671" filterUnits="userSpaceOnUse" color-interpolation-filters="sRGB">
<feFlood flood-opacity="0" result="BackgroundImageFix"/>
<feGaussianBlur in="BackgroundImageFix" stdDeviation="2"/>
<feComposite in2="SourceAlpha" operator="in" result="effect1_backgroundBlur_59_128"/>
<feBlend mode="normal" in="SourceGraphic" in2="effect1_backgroundBlur_59_128" result="shape"/>
</filter>
<filter id="filter7_b_59_128" x="164.661" y="269.234" width="18.7262" height="18.6226" filterUnits="userSpaceOnUse" color-interpolation-filters="sRGB">
<feFlood flood-opacity="0" result="BackgroundImageFix"/>
<feGaussianBlur in="BackgroundImageFix" stdDeviation="2"/>
<feComposite in2="SourceAlpha" operator="in" result="effect1_backgroundBlur_59_128"/>
<feBlend mode="normal" in="SourceGraphic" in2="effect1_backgroundBlur_59_128" result="shape"/>
</filter>
<filter id="filter8_b_59_128" x="174.262" y="256.478" width="24.67" height="31.5905" filterUnits="userSpaceOnUse" color-interpolation-filters="sRGB">
<feFlood flood-opacity="0" result="BackgroundImageFix"/>
<feGaussianBlur in="BackgroundImageFix" stdDeviation="2"/>
<feComposite in2="SourceAlpha" operator="in" result="effect1_backgroundBlur_59_128"/>
<feBlend mode="normal" in="SourceGraphic" in2="effect1_backgroundBlur_59_128" result="shape"/>
</filter>
<filter id="filter9_b_59_128" x="195.724" y="255.96" width="26.9741" height="28.002" filterUnits="userSpaceOnUse" color-interpolation-filters="sRGB">
<feFlood flood-opacity="0" result="BackgroundImageFix"/>
<feGaussianBlur in="BackgroundImageFix" stdDeviation="2"/>
<feComposite in2="SourceAlpha" operator="in" result="effect1_backgroundBlur_59_128"/>
<feBlend mode="normal" in="SourceGraphic" in2="effect1_backgroundBlur_59_128" result="shape"/>
</filter>
<filter id="filter10_b_59_128" x="208.618" y="255.04" width="22.4496" height="22.0109" filterUnits="userSpaceOnUse" color-interpolation-filters="sRGB">
<feFlood flood-opacity="0" result="BackgroundImageFix"/>
<feGaussianBlur in="BackgroundImageFix" stdDeviation="2"/>
<feComposite in2="SourceAlpha" operator="in" result="effect1_backgroundBlur_59_128"/>
<feBlend mode="normal" in="SourceGraphic" in2="effect1_backgroundBlur_59_128" result="shape"/>
</filter>
<filter id="filter11_b_59_128" x="218.197" y="251.33" width="22.519" height="22.4878" filterUnits="userSpaceOnUse" color-interpolation-filters="sRGB">
<feFlood flood-opacity="0" result="BackgroundImageFix"/>
<feGaussianBlur in="BackgroundImageFix" stdDeviation="2"/>
<feComposite in2="SourceAlpha" operator="in" result="effect1_backgroundBlur_59_128"/>
<feBlend mode="normal" in="SourceGraphic" in2="effect1_backgroundBlur_59_128" result="shape"/>
</filter>
<filter id="filter12_b_59_128" x="227.255" y="245.192" width="20.5911" height="21.0555" filterUnits="userSpaceOnUse" color-interpolation-filters="sRGB">
<feFlood flood-opacity="0" result="BackgroundImageFix"/>
<feGaussianBlur in="BackgroundImageFix" stdDeviation="2"/>
<feComposite in2="SourceAlpha" operator="in" result="effect1_backgroundBlur_59_128"/>
<feBlend mode="normal" in="SourceGraphic" in2="effect1_backgroundBlur_59_128" result="shape"/>
</filter>
<filter id="filter13_b_59_128" x="235.625" y="237.346" width="22.6403" height="22.6155" filterUnits="userSpaceOnUse" color-interpolation-filters="sRGB">
<feFlood flood-opacity="0" result="BackgroundImageFix"/>
<feGaussianBlur in="BackgroundImageFix" stdDeviation="2"/>
<feComposite in2="SourceAlpha" operator="in" result="effect1_backgroundBlur_59_128"/>
<feBlend mode="normal" in="SourceGraphic" in2="effect1_backgroundBlur_59_128" result="shape"/>
</filter>
<filter id="filter14_b_59_128" x="242.503" y="229.497" width="23.1617" height="23.1995" filterUnits="userSpaceOnUse" color-interpolation-filters="sRGB">
<feFlood flood-opacity="0" result="BackgroundImageFix"/>
<feGaussianBlur in="BackgroundImageFix" stdDeviation="2"/>
<feComposite in2="SourceAlpha" operator="in" result="effect1_backgroundBlur_59_128"/>
<feBlend mode="normal" in="SourceGraphic" in2="effect1_backgroundBlur_59_128" result="shape"/>
</filter>
<filter id="filter15_b_59_128" x="244.696" y="216.329" width="28.7167" height="25.7634" filterUnits="userSpaceOnUse" color-interpolation-filters="sRGB">
<feFlood flood-opacity="0" result="BackgroundImageFix"/>
<feGaussianBlur in="BackgroundImageFix" stdDeviation="2"/>
<feComposite in2="SourceAlpha" operator="in" result="effect1_backgroundBlur_59_128"/>
<feBlend mode="normal" in="SourceGraphic" in2="effect1_backgroundBlur_59_128" result="shape"/>
</filter>
<filter id="filter16_b_59_128" x="255.349" y="213.312" width="22.5564" height="22.5844" filterUnits="userSpaceOnUse" color-interpolation-filters="sRGB">
<feFlood flood-opacity="0" result="BackgroundImageFix"/>
<feGaussianBlur in="BackgroundImageFix" stdDeviation="2"/>
<feComposite in2="SourceAlpha" operator="in" result="effect1_backgroundBlur_59_128"/>
<feBlend mode="normal" in="SourceGraphic" in2="effect1_backgroundBlur_59_128" result="shape"/>
</filter>
</defs>
</svg>
